<svg id="svg" version="1.1" xmlns="http://www.w3.org/2000/svg" xmlns:xlink="http://www.w3.org/1999/xlink" width="400" height="224.65753424657535" viewBox="0, 0, 400,224.65753424657535"><g id="svgg"><path id="path0" d="M207.183 59.645 C 199.991 61.158,193.392 67.967,191.223 76.115 C 189.121 84.010,186.350 89.144,180.154 96.629 C 177.048 100.381,173.483 106.155,173.483 107.434 C 173.483 107.643,173.721 107.969,174.011 108.160 C 176.225 109.610,175.369 113.657,172.675 114.472 C 172.057 114.660,172.294 116.390,173.273 118.835 C 174.114 120.937,174.455 121.515,174.264 120.517 C 173.940 118.822,175.405 117.079,178.258 115.767 C 178.969 115.440,179.551 115.039,179.551 114.876 C 179.551 114.713,179.449 114.643,179.325 114.719 C 178.681 115.117,178.241 110.837,178.659 108.244 C 179.058 105.773,179.221 106.106,179.163 109.269 L 179.112 112.022 179.513 110.674 C 180.632 106.910,183.080 106.583,186.802 109.699 L 187.874 110.596 188.937 109.710 C 193.607 105.815,197.123 107.691,196.183 113.576 C 195.907 115.304,195.952 115.390,197.256 115.641 C 197.821 115.750,198.324 115.622,199.391 115.098 C 200.158 114.721,202.506 113.889,204.607 113.249 C 208.777 111.979,211.933 110.561,214.719 108.705 C 217.204 107.050,217.296 107.010,216.404 107.973 C 215.404 109.055,212.515 111.221,210.589 112.335 C 209.192 113.143,207.681 113.767,202.079 115.849 C 199.488 116.812,199.533 116.762,200.444 117.635 C 200.812 117.988,201.225 118.616,201.363 119.032 L 201.612 119.788 202.349 119.332 C 204.349 118.096,207.640 119.639,207.640 121.811 C 207.640 122.131,220.589 121.979,226.966 121.584 C 236.176 121.013,235.139 121.159,235.603 120.367 L 236.016 119.663 236.229 120.281 C 236.646 121.491,237.531 121.135,238.315 119.441 C 239.124 117.692,239.459 117.686,239.378 119.425 L 239.318 120.711 239.940 120.594 C 240.282 120.530,241.143 120.413,241.854 120.335 C 242.565 120.257,243.146 120.124,243.145 120.040 C 243.129 117.347,241.273 111.156,238.146 103.371 C 234.210 93.570,232.584 88.075,231.475 80.834 C 229.468 67.720,225.066 61.334,216.966 59.783 C 214.803 59.368,208.893 59.285,207.183 59.645 M198.820 79.012 C 200.863 78.860,201.137 79.047,199.944 79.782 C 198.086 80.926,196.144 80.770,195.059 79.390 C 194.271 78.389,194.475 78.195,195.787 78.698 C 196.770 79.075,197.276 79.128,198.820 79.012 M208.438 79.748 C 209.446 80.677,212.889 81.154,215.030 80.661 C 216.255 80.378,216.407 80.513,215.712 81.266 C 213.813 83.328,209.876 83.142,208.377 80.918 C 207.689 79.897,207.731 79.095,208.438 79.748 M181.477 109.342 C 180.882 109.937,180.645 114.203,181.177 114.735 C 181.801 115.359,184.724 114.280,185.713 113.062 C 186.969 111.515,186.970 111.477,185.787 110.510 C 183.952 109.011,182.265 108.553,181.477 109.342 M191.558 109.505 C 190.525 110.064,188.989 111.265,188.989 111.512 C 188.989 112.542,191.202 114.351,192.773 114.604 C 194.903 114.948,194.924 114.924,194.935 112.157 C 194.948 108.970,193.966 108.199,191.558 109.505 M187.372 113.202 C 186.613 114.087,186.660 114.157,188.006 114.157 L 189.298 114.157 188.652 113.483 C 187.898 112.697,187.821 112.680,187.372 113.202 M186.313 115.698 C 185.347 115.839,185.295 115.890,184.234 117.744 C 182.912 120.054,182.907 119.701,184.288 122.079 L 185.429 124.045 187.852 124.045 L 190.276 124.045 190.836 123.202 C 192.814 120.225,192.856 119.997,191.780 118.073 C 190.419 115.639,189.488 115.234,186.313 115.698 M182.079 116.104 C 181.721 116.248,181.723 116.625,182.086 117.488 L 182.374 118.174 182.998 117.064 L 183.621 115.955 182.990 115.973 C 182.643 115.983,182.233 116.042,182.079 116.104 M192.412 116.461 C 192.592 116.739,192.881 117.194,193.053 117.472 C 193.478 118.158,193.591 118.114,193.888 117.144 C 194.188 116.167,194.009 115.964,192.839 115.958 C 192.107 115.955,192.094 115.971,192.412 116.461 M195.488 116.798 C 195.432 117.348,195.276 117.871,194.981 118.501 C 194.443 119.647,194.511 120.460,195.319 122.528 C 195.609 123.271,195.510 123.265,197.165 122.640 C 198.834 122.011,200.225 120.765,200.225 119.900 C 200.225 119.200,198.940 117.753,198.319 117.753 C 197.973 117.753,196.069 119.130,195.678 119.663 C 195.377 120.072,195.500 118.946,195.846 118.117 C 196.090 117.532,196.327 117.301,196.688 117.295 C 197.099 117.287,197.053 117.226,196.435 116.957 C 195.564 116.579,195.512 116.570,195.488 116.798 M179.070 117.012 C 177.161 117.306,175.235 119.255,175.714 120.409 C 176.097 121.335,177.703 122.461,177.995 122.009 C 178.317 121.508,179.101 118.781,179.101 118.159 C 179.101 117.391,179.328 117.236,179.813 117.675 C 180.377 118.185,180.337 119.338,179.689 121.187 C 179.163 122.689,179.162 122.713,179.597 122.946 C 180.161 123.248,180.215 123.185,180.929 121.388 L 181.525 119.888 181.081 118.764 C 180.837 118.146,180.583 117.463,180.517 117.247 C 180.399 116.859,180.237 116.833,179.070 117.012 M189.863 117.879 C 191.126 118.942,190.970 121.001,189.555 121.928 C 188.670 122.508,187.016 122.251,186.363 121.431 C 184.432 119.010,187.503 115.893,189.863 117.879 M182.067 122.191 C 181.944 122.531,181.776 122.976,181.693 123.180 C 181.572 123.477,181.726 123.582,182.472 123.708 C 183.646 123.906,183.760 123.783,183.171 122.956 C 182.910 122.590,182.697 122.185,182.697 122.057 C 182.697 121.528,182.275 121.618,182.067 122.191 M242.809 121.911 C 242.685 121.954,241.697 122.057,240.612 122.139 L 238.640 122.289 238.218 123.111 C 236.997 125.492,235.974 125.291,236.966 122.865 C 237.311 122.021,236.211 122.430,235.755 123.315 C 235.273 124.253,234.014 125.550,233.797 125.333 C 233.720 125.256,233.820 124.714,234.020 124.129 C 234.488 122.755,234.481 122.697,233.851 122.697 C 233.392 122.697,233.301 122.834,233.181 123.706 C 233.008 124.968,232.161 126.656,231.282 127.490 C 230.266 128.454,230.282 127.985,231.353 125.282 C 231.890 123.926,232.305 122.791,232.273 122.760 C 232.242 122.729,231.010 122.805,229.535 122.929 C 228.061 123.054,222.530 123.218,217.245 123.296 L 207.637 123.436 207.178 124.179 C 205.396 127.062,200.674 126.084,200.674 122.831 C 200.674 122.106,200.757 122.095,199.208 123.028 C 198.495 123.457,197.464 123.979,196.918 124.188 C 196.099 124.500,195.944 124.649,196.038 125.036 C 196.100 125.294,196.221 126.264,196.306 127.191 C 196.657 130.980,202.953 134.149,210.144 134.156 L 211.862 134.157 211.436 133.323 C 210.307 131.109,211.647 128.417,214.111 127.951 C 215.830 127.627,217.978 129.249,218.333 131.140 C 218.452 131.779,218.629 131.951,219.518 132.294 C 221.754 133.157,223.952 132.625,234.045 128.777 C 235.034 128.400,235.925 128.091,236.024 128.091 C 237.173 128.086,230.326 132.267,227.191 133.485 C 225.316 134.213,225.359 134.271,228.461 135.231 C 234.258 137.025,235.624 137.412,239.084 138.238 C 239.306 138.291,239.540 137.865,239.845 136.854 C 240.507 134.656,240.728 134.715,240.899 137.135 C 241.058 139.395,241.406 139.265,242.087 136.693 C 243.331 131.989,244.090 121.709,243.184 121.815 C 243.102 121.825,242.933 121.868,242.809 121.911 M193.258 122.230 C 193.258 122.344,192.990 122.756,192.663 123.145 L 192.067 123.853 192.944 123.695 C 194.041 123.496,194.005 123.536,193.824 122.713 C 193.687 122.089,193.258 121.723,193.258 122.230 M177.260 124.453 C 176.752 124.760,176.501 124.778,175.690 124.561 C 174.635 124.280,174.392 124.420,174.385 125.312 C 174.365 128.174,171.891 133.035,167.371 139.093 C 163.625 144.113,163.080 147.491,165.593 150.104 C 168.576 153.204,181.368 152.785,187.373 149.390 C 188.029 149.019,188.535 148.688,188.496 148.654 C 188.458 148.620,187.669 147.988,186.742 147.249 C 184.594 145.538,183.179 144.128,181.535 142.064 C 179.433 139.427,179.282 138.926,181.064 140.509 C 186.751 145.560,191.746 148.359,199.213 150.682 C 205.854 152.747,205.864 152.755,202.528 153.140 C 201.756 153.230,201.124 153.347,201.124 153.402 C 201.124 153.957,202.961 158.739,203.744 160.225 C 208.450 169.146,214.029 169.445,223.451 161.281 C 232.267 153.643,235.016 150.916,237.307 147.539 C 238.875 145.226,241.045 140.868,240.443 141.240 C 240.312 141.321,240.047 141.782,239.854 142.266 C 239.364 143.489,239.101 143.365,239.101 141.910 C 239.101 140.846,239.042 140.674,238.675 140.674 C 238.297 140.674,238.239 140.886,238.167 142.528 C 238.087 144.336,237.122 147.191,236.590 147.191 C 236.139 147.191,236.538 143.628,237.217 141.594 C 237.633 140.344,237.660 140.365,234.713 139.569 C 231.283 138.643,228.274 137.734,224.675 136.536 L 221.597 135.512 218.383 136.172 C 209.013 138.095,199.832 136.343,196.112 131.922 L 195.534 131.235 194.722 131.714 C 193.294 132.556,191.309 131.958,188.824 129.939 L 187.873 129.165 186.768 130.091 C 182.062 134.030,178.325 131.503,179.754 125.350 C 180.034 124.143,178.614 123.632,177.260 124.453 M230.107 125.225 C 230.101 126.207,229.425 127.608,228.570 128.411 C 227.247 129.654,227.417 128.363,228.914 125.809 C 229.785 124.323,230.115 124.162,230.107 125.225 M181.041 125.449 C 180.695 126.738,180.890 129.591,181.365 130.194 C 182.180 131.230,184.126 130.724,186.133 128.954 L 186.985 128.202 185.844 126.819 C 184.750 125.493,184.645 125.426,183.288 125.190 C 181.352 124.853,181.196 124.871,181.041 125.449 M191.543 125.345 C 191.140 125.406,188.989 127.824,188.989 128.217 C 188.989 128.835,192.248 130.782,193.287 130.785 C 194.599 130.788,194.739 130.370,193.937 128.841 C 192.702 126.486,192.799 125.341,194.172 126.075 C 194.630 126.320,194.777 125.991,194.435 125.488 C 194.281 125.262,192.636 125.181,191.543 125.345 M227.191 125.716 C 227.191 127.075,224.401 130.870,223.945 130.132 C 223.657 129.667,226.396 125.393,226.981 125.393 C 227.097 125.393,227.191 125.538,227.191 125.716 M186.946 126.030 C 187.434 126.942,187.836 127.072,188.434 126.511 C 189.228 125.764,189.133 125.618,187.857 125.618 C 186.830 125.618,186.746 125.656,186.946 126.030 M235.489 145.056 C 235.514 146.360,234.622 149.826,234.112 150.404 C 233.392 151.221,233.898 144.470,234.665 143.037 C 234.974 142.459,235.462 143.654,235.489 145.056 M232.725 147.753 C 232.534 150.135,231.273 153.258,230.502 153.258 C 230.279 153.258,230.347 152.856,231.146 149.438 C 232.231 144.799,233.031 143.944,232.725 147.753 M228.433 152.978 C 228.245 153.990,227.537 155.200,226.946 155.516 C 226.307 155.858,226.389 155.324,227.239 153.600 C 228.061 151.934,228.687 151.607,228.433 152.978 " stroke="none" fill="#ebf4f4" fill-rule="evenodd"></path><path id="path1" d="M0.000 112.360 L 0.000 224.719 200.000 224.719 L 400.000 224.719 400.000 112.360 L 400.000 0.000 200.000 0.000 L 0.000 0.000 0.000 112.360 M217.416 57.290 C 226.447 58.983,231.859 66.109,233.808 78.876 C 234.917 86.134,236.055 90.554,238.584 97.416 C 239.820 100.770,239.583 100.571,242.841 100.988 L 245.570 101.337 246.556 100.351 C 248.654 98.253,251.876 98.968,252.560 101.682 C 252.748 102.431,252.943 102.719,253.317 102.805 C 268.043 106.205,273.218 108.833,272.158 112.372 C 271.097 115.911,262.293 119.207,249.133 120.990 C 246.102 121.401,246.150 121.324,248.126 122.616 C 256.773 128.269,261.853 132.719,263.818 136.362 C 264.330 137.313,264.994 138.494,265.292 138.989 C 267.067 141.926,263.756 145.333,260.577 143.841 C 259.817 143.485,258.979 143.394,255.618 143.307 C 252.368 143.223,250.788 143.060,247.578 142.478 C 242.989 141.647,243.131 141.630,242.585 143.068 C 240.602 148.286,237.256 152.292,228.358 160.100 C 221.177 166.402,218.661 168.062,214.831 169.025 C 208.243 170.681,202.483 165.290,199.686 154.849 L 199.179 152.956 197.286 152.452 C 195.250 151.909,193.940 151.397,191.769 150.297 L 190.391 149.599 189.634 150.168 C 183.644 154.671,168.084 155.444,164.361 151.425 C 161.167 147.976,161.571 143.858,165.637 138.427 C 168.023 135.241,169.735 132.651,170.852 130.540 C 172.226 127.945,172.261 127.787,171.606 127.132 C 171.269 126.795,170.947 126.076,170.768 125.259 C 170.608 124.529,170.374 123.863,170.248 123.778 C 170.116 123.689,170.014 122.568,170.009 121.138 C 170.000 118.697,169.991 118.653,169.483 118.652 C 165.801 118.647,150.807 114.615,146.368 112.436 C 144.352 111.447,144.016 111.351,142.545 111.350 C 140.629 111.348,139.942 110.959,139.143 109.425 C 137.883 107.004,139.541 104.494,142.400 104.494 C 143.206 104.494,143.906 104.364,144.198 104.160 C 145.027 103.579,148.099 102.554,150.988 101.894 L 153.774 101.258 153.020 100.685 C 150.513 98.782,146.969 95.414,146.270 94.270 C 146.043 93.899,145.376 93.343,144.787 93.034 C 143.359 92.284,142.697 91.268,142.697 89.825 C 142.697 87.193,145.440 85.468,147.708 86.675 C 148.293 86.986,149.137 87.065,152.247 87.098 C 156.121 87.139,158.062 87.327,161.659 88.012 L 163.656 88.392 164.244 87.700 C 166.225 85.366,169.919 86.194,170.463 89.093 C 170.597 89.811,170.698 89.884,172.101 90.298 C 175.368 91.261,180.141 92.584,180.347 92.584 C 181.631 92.584,187.503 81.184,188.564 76.629 C 190.878 66.704,198.537 58.623,207.096 57.078 C 208.536 56.818,215.679 56.965,217.416 57.290 M145.473 88.088 C 144.245 88.584,143.956 89.930,144.851 90.994 C 146.191 92.586,149.025 90.721,147.749 89.088 C 147.431 88.681,147.425 88.691,147.661 89.244 C 148.205 90.518,146.786 91.860,145.511 91.279 C 144.181 90.673,144.211 89.043,145.565 88.328 C 146.415 87.880,146.358 87.731,145.473 88.088 M166.397 88.081 C 165.835 88.306,165.278 88.948,165.474 89.144 C 165.553 89.223,165.618 89.173,165.618 89.032 C 165.618 88.041,167.711 88.035,168.404 89.025 C 168.602 89.307,168.764 89.432,168.764 89.303 C 168.764 88.592,167.172 87.770,166.397 88.081 M150.169 89.205 C 149.784 89.372,149.663 89.609,149.663 90.200 C 149.663 90.743,149.424 91.290,148.869 92.017 L 148.075 93.056 148.517 93.676 C 149.257 94.716,152.204 97.403,154.483 99.115 L 156.642 100.738 158.152 100.596 C 158.983 100.518,161.079 100.302,162.809 100.116 C 164.539 99.930,168.000 99.711,170.499 99.629 L 175.043 99.480 176.768 97.212 C 179.159 94.070,179.478 94.415,172.501 92.595 L 170.059 91.957 169.082 92.645 C 167.901 93.478,166.528 93.569,165.367 92.890 C 164.697 92.499,164.387 92.141,163.483 90.710 C 163.023 89.981,151.411 88.669,150.169 89.205 M165.826 91.081 C 166.488 91.816,167.382 91.869,168.121 91.218 L 168.652 90.751 168.096 91.106 C 167.336 91.591,166.697 91.551,165.929 90.969 L 165.281 90.477 165.826 91.081 M171.348 100.822 C 162.905 101.323,159.303 101.646,158.818 101.946 C 158.549 102.112,164.000 105.571,167.802 107.647 L 169.200 108.411 170.049 107.927 C 170.517 107.661,170.967 107.310,171.050 107.148 C 171.237 106.786,174.016 101.076,174.120 100.843 C 174.192 100.680,173.783 100.677,171.348 100.822 M248.599 100.857 C 248.434 100.962,248.638 101.034,249.101 101.034 C 249.564 101.034,249.768 100.962,249.603 100.857 C 249.451 100.760,249.225 100.681,249.101 100.681 C 248.978 100.681,248.751 100.760,248.599 100.857 M240.521 102.303 C 242.906 107.905,245.843 117.626,245.843 119.919 C 245.843 120.511,259.503 117.806,263.628 116.397 C 275.752 112.254,272.802 108.766,253.374 104.273 C 252.633 104.102,252.442 104.130,252.271 104.436 C 250.788 107.086,246.276 106.493,245.692 103.572 C 245.524 102.732,245.636 102.784,243.078 102.372 C 240.455 101.950,240.370 101.948,240.521 102.303 M153.371 102.628 C 148.559 103.740,145.695 104.622,145.084 105.180 C 144.974 105.280,145.098 105.795,145.365 106.346 C 145.916 107.485,145.962 108.415,145.506 109.213 C 144.919 110.239,145.070 110.442,147.135 111.398 C 151.566 113.452,156.559 114.902,164.719 116.505 C 167.006 116.954,169.211 117.411,169.620 117.520 C 170.542 117.767,170.736 117.423,170.368 116.193 C 170.227 115.724,170.112 115.074,170.112 114.748 C 170.112 114.388,169.882 113.956,169.529 113.650 C 168.742 112.970,168.315 112.092,168.315 111.155 C 168.315 110.404,168.234 110.332,165.899 108.977 C 162.553 107.036,159.788 105.335,157.465 103.787 C 155.479 102.464,154.850 102.286,153.371 102.628 M250.144 103.828 C 249.502 104.362,248.828 104.390,248.084 103.915 L 247.528 103.559 248.059 104.027 C 248.762 104.646,249.498 104.617,250.268 103.940 C 251.015 103.283,250.911 103.189,250.144 103.828 M143.465 106.735 C 144.022 107.607,143.921 108.652,143.228 109.197 C 142.902 109.453,142.733 109.663,142.852 109.663 C 143.864 109.663,144.369 107.609,143.577 106.710 L 143.110 106.180 143.465 106.735 M140.682 106.952 C 140.554 107.191,140.461 107.671,140.475 108.019 C 140.499 108.589,140.516 108.574,140.657 107.858 C 140.742 107.421,140.888 106.940,140.981 106.790 C 141.074 106.640,141.097 106.517,141.032 106.517 C 140.968 106.517,140.810 106.712,140.682 106.952 M246.002 127.272 C 245.874 130.515,245.341 134.262,244.590 137.191 C 244.399 137.933,244.188 138.762,244.120 139.035 C 243.977 139.608,243.706 139.521,248.202 140.349 C 250.318 140.738,252.544 140.971,255.000 141.059 L 258.652 141.190 258.652 140.468 C 258.652 139.190,259.792 137.659,260.930 137.409 C 261.822 137.213,261.747 136.926,260.381 135.312 C 258.143 132.668,253.905 129.154,248.629 125.566 L 246.135 123.870 246.002 127.272 M213.258 130.337 C 212.516 131.079,213.024 133.258,213.939 133.258 C 214.048 133.258,213.889 133.010,213.585 132.707 C 212.899 132.021,212.874 131.098,213.522 130.408 C 214.120 129.772,213.886 129.710,213.258 130.337 M215.537 132.816 C 215.245 133.060,215.111 133.258,215.240 133.258 C 215.467 133.258,216.180 132.650,216.180 132.456 C 216.180 132.303,216.100 132.347,215.537 132.816 M261.001 139.428 C 260.274 140.155,260.253 141.337,260.955 141.931 C 261.460 142.359,261.460 142.359,261.067 141.892 C 260.208 140.872,260.713 139.416,262.033 139.105 C 262.758 138.934,262.768 138.921,262.181 138.899 C 261.791 138.885,261.343 139.086,261.001 139.428 M263.774 140.462 C 263.830 140.845,263.713 141.385,263.495 141.742 L 263.119 142.360 263.582 141.829 C 264.042 141.302,264.213 140.130,263.861 139.913 C 263.760 139.850,263.721 140.097,263.774 140.462 M261.893 142.521 C 262.098 142.635,262.397 142.635,262.602 142.521 C 262.866 142.373,262.775 142.322,262.247 142.322 C 261.719 142.322,261.629 142.373,261.893 142.521 " stroke="none" fill="#fafeff" fill-rule="evenodd"></path><path id="path2" d="M145.258 88.487 C 144.014 89.318,144.652 91.461,146.145 91.461 C 147.468 91.461,148.200 89.755,147.303 88.763 C 146.896 88.314,145.749 88.159,145.258 88.487 M165.851 88.806 C 164.530 90.225,166.587 92.273,168.102 91.046 C 168.734 90.535,168.785 89.408,168.205 88.767 C 167.645 88.148,166.446 88.168,165.851 88.806 M248.609 101.128 C 247.313 101.644,247.146 103.328,248.330 103.940 C 249.217 104.399,249.599 104.354,250.235 103.718 C 251.451 102.502,250.193 100.497,248.609 101.128 M141.163 106.812 C 140.154 107.886,140.782 109.438,142.225 109.438 C 143.247 109.438,143.820 108.901,143.820 107.943 C 143.820 106.523,142.116 105.798,141.163 106.812 M180.989 108.067 C 180.018 108.659,179.504 110.045,179.377 112.412 C 179.310 113.650,179.188 114.323,179.045 114.235 C 178.919 114.157,178.869 114.234,178.932 114.407 C 178.994 114.579,179.159 114.694,179.298 114.663 C 180.085 114.488,179.357 115.261,178.258 115.767 C 174.603 117.448,173.353 119.701,174.878 121.859 C 175.399 122.595,177.584 124.045,178.173 124.045 C 179.428 124.045,179.956 124.481,179.754 125.350 C 178.325 131.503,182.062 134.030,186.768 130.091 L 187.873 129.165 188.824 129.939 C 193.570 133.796,196.973 132.334,196.260 126.744 C 196.111 125.571,196.006 124.600,196.028 124.586 C 196.050 124.572,196.674 124.287,197.416 123.953 C 203.154 121.365,202.900 117.169,196.904 115.523 L 195.942 115.259 196.117 114.090 C 197.075 107.690,193.774 105.676,188.937 109.710 L 187.874 110.596 186.802 109.699 C 184.460 107.738,182.453 107.174,180.989 108.067 M184.112 109.359 C 185.096 109.866,186.742 111.234,186.740 111.544 C 186.736 112.637,184.663 114.329,183.000 114.598 C 180.955 114.928,181.065 115.029,180.943 112.706 C 180.761 109.229,181.776 108.156,184.112 109.359 M194.516 109.463 C 195.012 110.011,195.143 114.161,194.679 114.624 C 193.928 115.376,191.174 114.413,190.051 113.006 C 188.777 111.410,188.787 111.512,189.817 110.674 C 191.850 109.018,193.686 108.545,194.516 109.463 M170.562 109.888 C 169.646 110.803,170.463 112.584,171.798 112.584 C 172.479 112.584,173.483 111.671,173.483 111.052 C 173.483 109.690,171.536 108.914,170.562 109.888 M188.652 113.483 L 189.298 114.157 188.006 114.157 C 186.660 114.157,186.613 114.087,187.372 113.202 C 187.821 112.680,187.898 112.697,188.652 113.483 M190.600 116.197 C 192.886 118.866,192.926 120.057,190.836 123.202 L 190.276 124.045 187.852 124.045 L 185.429 124.045 184.288 122.079 C 182.907 119.701,182.912 120.054,184.234 117.744 C 185.295 115.890,185.347 115.839,186.313 115.698 C 188.021 115.449,190.174 115.699,190.600 116.197 M182.998 117.064 L 182.374 118.174 182.086 117.488 C 181.574 116.270,181.730 116.008,182.990 115.973 L 183.621 115.955 182.998 117.064 M193.870 116.136 C 194.081 116.271,194.085 116.502,193.888 117.144 C 193.591 118.114,193.478 118.158,193.053 117.472 C 192.881 117.194,192.592 116.739,192.412 116.461 C 192.064 115.926,193.156 115.683,193.870 116.136 M196.435 116.957 C 197.053 117.226,197.099 117.287,196.688 117.295 C 196.165 117.304,195.506 118.460,195.506 119.369 C 195.506 119.990,196.101 119.381,196.311 118.546 C 196.435 118.052,196.565 117.956,197.001 118.039 C 197.297 118.096,197.593 118.054,197.659 117.947 C 198.131 117.184,200.225 118.777,200.225 119.900 C 200.225 120.765,198.834 122.011,197.165 122.640 C 195.510 123.265,195.609 123.271,195.319 122.528 C 194.511 120.460,194.443 119.647,194.981 118.501 C 195.276 117.871,195.432 117.348,195.488 116.798 C 195.512 116.570,195.564 116.579,196.435 116.957 M180.517 117.247 C 180.583 117.463,180.837 118.146,181.081 118.764 L 181.525 119.888 180.929 121.388 C 180.210 123.197,180.164 123.250,179.567 122.930 C 179.195 122.731,179.142 122.590,179.318 122.261 C 179.563 121.804,178.261 121.672,177.938 122.121 C 177.699 122.453,176.027 121.167,175.714 120.409 C 175.235 119.255,177.161 117.306,179.070 117.012 C 180.237 116.833,180.399 116.859,180.517 117.247 M179.183 117.638 C 179.086 117.892,179.165 118.108,179.403 118.241 C 179.666 118.388,179.776 118.759,179.779 119.506 C 179.781 120.270,179.842 120.469,180.000 120.225 C 180.395 119.614,180.264 118.083,179.780 117.645 C 179.357 117.262,179.328 117.261,179.183 117.638 M186.987 117.588 C 186.235 117.973,185.544 119.377,185.718 120.167 C 186.253 122.602,189.428 123.024,190.488 120.801 C 191.521 118.635,189.163 116.472,186.987 117.588 M203.258 120.943 C 202.630 121.299,202.479 121.579,202.475 122.400 C 202.469 123.728,203.851 124.444,204.907 123.659 C 206.522 122.458,205.002 119.954,203.258 120.943 M182.697 122.057 C 182.697 122.185,182.910 122.590,183.171 122.956 C 183.760 123.783,183.646 123.906,182.472 123.708 C 181.726 123.582,181.572 123.477,181.693 123.180 C 181.776 122.976,181.944 122.531,182.067 122.191 C 182.275 121.618,182.697 121.528,182.697 122.057 M193.824 122.713 C 194.005 123.536,194.041 123.496,192.944 123.695 L 192.067 123.853 192.663 123.145 C 192.990 122.756,193.258 122.344,193.258 122.230 C 193.258 121.723,193.687 122.089,193.824 122.713 M183.288 125.190 C 184.645 125.426,184.750 125.493,185.844 126.819 L 186.985 128.202 186.133 128.954 C 182.931 131.778,180.896 131.321,180.902 127.779 C 180.907 124.732,180.873 124.770,183.288 125.190 M194.435 125.488 C 194.777 125.991,194.630 126.320,194.172 126.075 C 193.562 125.749,193.034 125.786,193.034 126.155 C 193.034 126.327,193.285 126.531,193.591 126.608 C 194.419 126.816,194.884 127.867,194.636 128.971 C 194.525 129.463,194.488 129.919,194.553 129.983 C 194.842 130.273,194.032 130.786,193.287 130.785 C 192.248 130.782,188.989 128.835,188.989 128.217 C 188.989 127.824,191.140 125.406,191.543 125.345 C 192.636 125.181,194.281 125.262,194.435 125.488 M188.989 125.804 C 188.989 126.322,187.876 127.030,187.522 126.737 C 186.565 125.942,186.661 125.618,187.857 125.618 C 188.480 125.618,188.989 125.701,188.989 125.804 M213.585 130.439 C 212.136 131.888,213.981 134.057,215.588 132.793 C 216.729 131.895,216.023 129.888,214.566 129.888 C 214.330 129.888,213.889 130.136,213.585 130.439 M261.266 139.567 C 260.079 140.501,260.718 142.247,262.247 142.247 C 263.244 142.247,263.820 141.658,263.820 140.640 C 263.820 139.980,262.922 139.101,262.247 139.101 C 262.033 139.101,261.592 139.311,261.266 139.567 " stroke="none" fill="#1ddcf6" fill-rule="evenodd"></path><path id="path3" d="M207.096 57.078 C 198.537 58.623,190.878 66.704,188.564 76.629 C 187.503 81.184,181.631 92.584,180.347 92.584 C 180.141 92.584,175.368 91.261,172.101 90.298 C 170.698 89.884,170.597 89.811,170.463 89.093 C 169.919 86.194,166.225 85.366,164.244 87.700 L 163.656 88.392 161.659 88.012 C 158.062 87.327,156.121 87.139,152.247 87.098 C 149.137 87.065,148.293 86.986,147.708 86.675 C 145.440 85.468,142.697 87.193,142.697 89.825 C 142.697 91.268,143.359 92.284,144.787 93.034 C 145.376 93.343,146.043 93.899,146.270 94.270 C 146.969 95.414,150.513 98.782,153.020 100.685 L 153.774 101.258 150.988 101.894 C 148.099 102.554,145.027 103.579,144.198 104.160 C 143.906 104.364,143.206 104.494,142.400 104.494 C 139.541 104.494,137.883 107.004,139.143 109.425 C 139.942 110.959,140.629 111.348,142.545 111.350 C 144.016 111.351,144.352 111.447,146.368 112.436 C 150.994 114.706,162.759 117.852,169.910 118.731 L 170.944 118.859 171.197 117.069 C 171.336 116.085,171.654 114.831,171.905 114.282 C 172.499 112.978,172.480 112.810,171.742 112.802 C 170.597 112.789,169.815 111.718,170.050 110.488 C 170.339 108.976,172.741 108.699,173.340 110.108 L 173.596 110.711 174.099 109.949 L 174.603 109.188 173.839 108.400 L 173.074 107.613 173.754 106.110 C 174.755 103.896,175.267 103.024,177.528 99.681 C 178.030 98.940,179.230 97.423,181.010 95.281 C 182.766 93.167,182.765 93.169,184.856 90.026 C 187.366 86.254,189.629 81.471,190.451 78.202 C 193.566 65.809,200.976 59.189,211.685 59.229 C 222.767 59.270,228.639 64.533,230.896 76.444 C 231.091 77.473,231.341 78.669,231.453 79.101 C 231.564 79.534,231.823 81.051,232.028 82.472 C 232.816 87.939,235.010 95.161,238.310 103.146 C 241.008 109.673,242.961 115.939,243.298 119.145 C 243.453 120.622,243.572 120.545,240.730 120.787 L 239.101 120.926 239.101 119.776 C 239.101 118.452,238.863 118.453,238.426 119.778 C 237.950 121.219,236.189 121.787,236.171 120.506 L 236.162 119.888 235.836 120.487 C 235.447 121.204,235.154 121.275,231.348 121.571 C 228.580 121.786,214.186 122.234,209.717 122.243 L 207.637 122.247 207.277 121.347 C 206.938 120.500,205.834 119.326,205.376 119.326 C 205.047 119.326,205.135 120.544,205.498 121.024 C 206.025 121.720,205.925 123.014,205.287 123.772 C 204.544 124.655,204.174 125.618,204.579 125.618 C 205.427 125.618,206.322 125.057,206.880 124.174 L 207.485 123.217 217.057 123.055 C 222.322 122.966,227.944 122.816,229.551 122.721 C 231.157 122.625,232.501 122.568,232.536 122.593 C 232.607 122.642,231.849 124.654,231.355 125.730 C 230.733 127.086,230.650 127.814,231.169 127.355 C 231.913 126.696,232.770 124.900,232.936 123.648 L 233.092 122.472 233.949 122.472 L 234.807 122.472 234.369 123.745 C 234.128 124.445,233.969 125.055,234.014 125.101 C 234.160 125.247,235.506 123.592,235.506 123.267 C 235.506 122.777,236.157 122.247,236.758 122.247 C 237.374 122.247,237.402 122.347,237.058 123.332 C 236.611 124.617,236.997 124.624,237.817 123.345 C 238.708 121.956,238.417 122.068,242.191 121.665 L 243.596 121.515 243.609 123.061 C 243.684 131.885,242.441 139.568,241.026 139.026 C 240.761 138.924,240.674 138.560,240.674 137.548 C 240.674 136.810,240.588 136.153,240.483 136.088 C 240.283 135.965,239.775 137.401,239.775 138.090 C 239.775 138.751,237.886 138.365,231.348 136.369 C 225.068 134.453,224.437 134.165,225.777 133.829 C 227.139 133.487,233.145 130.263,234.724 129.027 C 235.460 128.450,235.432 128.457,232.809 129.479 C 228.841 131.025,226.111 131.948,222.618 132.925 C 220.832 133.424,218.143 132.351,217.966 131.068 C 217.714 129.236,216.567 128.231,214.707 128.214 C 211.983 128.188,210.221 131.323,211.798 133.391 C 212.823 134.734,212.693 134.772,208.427 134.378 C 205.940 134.148,201.734 133.090,200.715 132.438 C 200.235 132.131,200.134 132.151,199.423 132.693 C 198.430 133.451,198.436 133.475,199.831 134.300 C 204.118 136.831,212.749 137.441,219.515 135.691 L 221.390 135.206 223.673 135.935 C 224.928 136.335,226.309 136.804,226.742 136.975 C 227.174 137.146,227.983 137.401,228.539 137.541 C 229.096 137.682,230.107 137.980,230.787 138.205 C 231.466 138.429,233.185 138.931,234.607 139.319 C 236.028 139.707,237.343 140.085,237.528 140.160 C 237.713 140.235,237.990 140.275,238.144 140.251 C 238.882 140.132,239.326 140.686,239.345 141.749 L 239.364 142.809 239.803 141.854 C 240.218 140.951,240.899 140.545,240.899 141.201 C 240.899 143.606,234.794 151.698,229.663 156.095 C 229.107 156.571,227.640 157.879,226.404 159.000 C 217.816 166.793,213.569 168.713,209.325 166.718 C 206.815 165.538,203.497 161.349,202.581 158.202 C 202.491 157.893,202.337 157.539,202.239 157.416 C 201.962 157.065,200.969 153.384,201.071 153.080 C 201.129 152.906,201.674 152.809,202.590 152.809 C 204.296 152.809,204.657 152.476,203.321 152.134 C 202.792 151.999,201.904 151.733,201.348 151.544 C 200.792 151.354,199.528 150.962,198.539 150.671 C 194.976 149.624,190.471 147.629,187.978 145.995 C 185.633 144.458,183.824 143.116,182.079 141.617 C 181.306 140.954,180.674 140.507,180.674 140.624 C 180.674 141.224,184.560 145.262,186.921 147.116 C 189.052 148.789,189.053 148.839,186.980 149.874 C 180.040 153.342,167.761 153.272,165.072 149.750 C 162.931 146.946,163.438 144.266,167.059 139.258 C 172.320 131.981,173.621 129.429,172.897 127.815 C 172.517 126.968,172.135 126.875,172.135 127.631 C 172.135 128.744,169.054 133.863,165.637 138.427 C 161.571 143.858,161.167 147.976,164.361 151.425 C 168.084 155.444,183.644 154.671,189.634 150.168 L 190.391 149.599 191.769 150.297 C 193.940 151.397,195.250 151.909,197.286 152.452 L 199.179 152.956 199.686 154.849 C 202.483 165.290,208.243 170.681,214.831 169.025 C 218.661 168.062,221.177 166.402,228.358 160.100 C 237.256 152.292,240.602 148.286,242.585 143.068 C 243.131 141.630,242.989 141.647,247.578 142.478 C 250.788 143.060,252.368 143.223,255.618 143.307 C 258.979 143.394,259.817 143.485,260.577 143.841 C 263.756 145.333,267.067 141.926,265.292 138.989 C 264.994 138.494,264.330 137.313,263.818 136.362 C 261.853 132.719,256.773 128.269,248.126 122.616 C 246.150 121.324,246.102 121.401,249.133 120.990 C 262.293 119.207,271.097 115.911,272.158 112.372 C 273.218 108.833,268.043 106.205,253.317 102.805 C 252.943 102.719,252.748 102.431,252.560 101.682 C 251.876 98.968,248.654 98.253,246.556 100.351 L 245.570 101.337 242.841 100.988 C 239.583 100.571,239.820 100.770,238.584 97.416 C 236.055 90.554,234.917 86.134,233.808 78.876 C 231.859 66.109,226.447 58.983,217.416 57.290 C 215.679 56.965,208.536 56.818,207.096 57.078 M194.831 78.738 C 194.831 80.178,197.931 80.808,199.719 79.730 C 200.683 79.148,200.711 79.160,198.688 79.277 C 197.246 79.361,196.737 79.295,195.879 78.916 C 195.126 78.583,194.831 78.532,194.831 78.738 M208.342 80.432 C 209.193 82.874,213.684 83.295,215.618 81.114 L 216.067 80.607 215.486 80.748 C 213.049 81.340,210.116 81.051,208.624 80.073 C 208.098 79.729,208.097 79.729,208.342 80.432 M147.472 88.785 C 148.263 89.630,148.253 90.209,147.433 91.029 C 145.850 92.611,143.352 90.623,144.631 88.798 C 145.391 87.712,146.463 87.707,147.472 88.785 M168.258 88.604 C 169.361 89.613,168.512 91.685,166.996 91.685 C 166.050 91.685,165.078 90.510,165.262 89.587 C 165.591 87.943,167.023 87.473,168.258 88.604 M159.438 89.795 C 162.231 90.204,163.319 90.450,163.483 90.710 C 164.387 92.141,164.697 92.499,165.367 92.890 C 166.528 93.569,167.901 93.478,169.082 92.645 L 170.059 91.957 172.501 92.595 C 179.478 94.415,179.159 94.070,176.768 97.212 L 175.043 99.480 170.499 99.629 C 168.000 99.711,164.539 99.930,162.809 100.116 C 161.079 100.302,158.983 100.518,158.152 100.596 L 156.642 100.738 154.483 99.115 C 152.204 97.403,149.257 94.716,148.517 93.676 L 148.075 93.056 148.869 92.017 C 149.424 91.290,149.663 90.743,149.663 90.200 C 149.663 88.798,151.969 88.703,159.438 89.795 M174.120 100.843 C 174.016 101.076,171.237 106.786,171.050 107.148 C 170.967 107.310,170.517 107.661,170.049 107.927 L 169.200 108.411 167.802 107.647 C 164.000 105.571,158.549 102.112,158.818 101.946 C 159.170 101.729,162.432 101.374,166.292 101.134 C 174.215 100.640,174.210 100.640,174.120 100.843 M249.908 101.022 C 251.573 101.883,250.971 104.494,249.108 104.494 C 247.360 104.494,246.800 102.086,248.308 101.054 C 248.989 100.589,249.067 100.587,249.908 101.022 M243.078 102.372 C 245.636 102.784,245.524 102.732,245.692 103.572 C 246.276 106.493,250.788 107.086,252.271 104.436 C 252.442 104.130,252.633 104.102,253.374 104.273 C 272.802 108.766,275.752 112.254,263.628 116.397 C 259.503 117.806,245.843 120.511,245.843 119.919 C 245.843 117.626,242.906 107.905,240.521 102.303 C 240.370 101.948,240.455 101.950,243.078 102.372 M157.465 103.787 C 159.788 105.335,162.553 107.036,165.899 108.977 C 168.234 110.332,168.315 110.404,168.315 111.155 C 168.315 112.092,168.742 112.970,169.529 113.650 C 169.882 113.956,170.112 114.388,170.112 114.748 C 170.112 115.074,170.227 115.724,170.368 116.193 C 170.736 117.423,170.542 117.767,169.620 117.520 C 169.211 117.411,167.006 116.954,164.719 116.505 C 156.559 114.902,151.566 113.452,147.135 111.398 C 145.070 110.442,144.919 110.239,145.506 109.213 C 145.962 108.415,145.916 107.485,145.365 106.346 C 145.098 105.795,144.974 105.280,145.084 105.180 C 145.695 104.622,148.559 103.740,153.371 102.628 C 154.850 102.286,155.479 102.464,157.465 103.787 M143.652 106.767 C 144.587 107.894,143.768 109.663,142.310 109.663 C 140.903 109.663,139.914 107.949,140.730 106.925 C 141.494 105.967,142.924 105.890,143.652 106.767 M215.030 108.721 C 212.821 110.397,208.189 112.534,205.222 113.246 C 204.060 113.524,203.771 113.876,204.326 114.334 C 204.877 114.789,209.386 112.997,211.884 111.331 C 213.605 110.184,213.832 110.018,214.848 109.162 C 215.865 108.304,215.996 107.988,215.030 108.721 M253.258 128.883 C 257.174 131.856,261.573 136.147,261.573 136.994 C 261.573 137.145,261.284 137.331,260.930 137.409 C 259.792 137.659,258.652 139.190,258.652 140.468 L 258.652 141.190 255.000 141.059 C 252.544 140.971,250.318 140.738,248.202 140.349 C 243.706 139.521,243.977 139.608,244.120 139.035 C 244.188 138.762,244.399 137.933,244.590 137.191 C 245.341 134.262,245.874 130.515,246.002 127.272 L 246.135 123.870 248.629 125.566 C 250.001 126.499,252.084 127.991,253.258 128.883 M229.276 125.518 C 228.663 126.475,227.865 128.287,227.865 128.722 C 227.865 129.148,229.263 127.397,229.660 126.474 C 230.417 124.713,230.176 124.112,229.276 125.518 M225.748 126.942 C 225.020 127.933,224.270 129.390,224.270 129.810 C 224.270 130.514,226.413 127.663,226.739 126.525 C 227.023 125.537,226.671 125.685,225.748 126.942 M215.735 130.115 C 216.286 130.410,216.531 131.702,216.167 132.392 C 215.308 134.022,212.809 133.306,212.809 131.430 C 212.809 130.171,214.456 129.430,215.735 130.115 M263.641 139.601 C 264.384 140.566,264.068 141.767,262.913 142.364 C 261.828 142.925,260.449 142.016,260.449 140.741 C 260.449 139.034,262.610 138.261,263.641 139.601 M237.323 141.803 C 236.908 143.740,236.589 146.061,236.699 146.351 C 236.958 147.039,237.835 144.322,237.933 142.528 C 238.048 140.410,237.709 140.006,237.323 141.803 M234.666 143.933 C 234.316 145.481,233.654 150.358,233.777 150.481 C 234.345 151.049,235.391 145.715,235.084 143.820 L 234.919 142.809 234.666 143.933 M231.751 148.090 C 230.621 152.136,230.491 153.602,231.425 151.742 C 232.266 150.068,232.608 148.626,232.539 147.044 L 232.472 145.506 231.751 148.090 M227.595 153.262 C 226.781 154.976,226.701 155.318,227.176 155.064 C 227.645 154.813,228.168 153.493,228.047 152.867 C 227.992 152.580,227.868 152.689,227.595 153.262 " stroke="none" fill="#443534" fill-rule="evenodd"></path><path id="path4" d="M207.227 59.352 C 205.734 59.709,206.270 59.831,208.004 59.529 C 209.452 59.277,214.145 59.348,216.517 59.658 C 217.371 59.770,217.382 59.764,216.742 59.537 C 215.805 59.206,208.436 59.062,207.227 59.352 M203.652 60.560 C 203.250 60.734,202.921 60.934,202.921 61.003 C 202.921 61.129,204.487 60.532,204.689 60.330 C 204.888 60.131,204.380 60.243,203.652 60.560 M219.120 60.301 C 219.355 60.491,221.124 61.106,221.124 60.998 C 221.124 60.845,219.658 60.225,219.296 60.225 C 219.147 60.225,219.068 60.259,219.120 60.301 M222.139 61.725 C 223.907 62.912,224.988 63.920,226.111 65.431 C 227.330 67.071,227.626 67.344,227.102 66.348 C 226.305 64.833,222.325 61.124,221.496 61.124 C 221.357 61.124,221.647 61.394,222.139 61.725 M201.404 61.795 C 200.652 62.254,200.367 62.657,201.067 62.272 C 201.589 61.985,202.389 61.364,202.247 61.356 C 202.185 61.353,201.806 61.550,201.404 61.795 M198.750 63.792 C 197.213 65.093,195.145 67.430,194.288 68.832 C 193.680 69.827,193.939 69.562,195.120 67.978 C 196.312 66.379,197.888 64.718,199.438 63.425 C 200.056 62.909,200.505 62.484,200.435 62.480 C 200.365 62.475,199.607 63.066,198.750 63.792 M227.603 67.584 C 227.714 67.801,227.984 68.360,228.202 68.828 C 228.420 69.296,228.642 69.635,228.696 69.581 C 228.811 69.466,227.688 67.191,227.516 67.191 C 227.452 67.191,227.491 67.368,227.603 67.584 M193.128 70.684 C 192.799 71.246,192.570 71.746,192.619 71.795 C 192.669 71.845,192.990 71.385,193.334 70.774 C 194.118 69.379,193.939 69.301,193.128 70.684 M228.881 70.337 C 229.164 71.289,229.862 72.935,229.875 72.680 C 229.895 72.295,229.175 70.247,228.934 70.000 C 228.790 69.853,228.771 69.969,228.881 70.337 M191.918 73.125 C 191.470 74.304,191.450 74.925,191.896 73.834 C 192.145 73.223,192.303 72.678,192.248 72.623 C 192.193 72.567,192.044 72.793,191.918 73.125 M230.119 73.849 C 230.105 74.362,230.844 77.321,230.958 77.207 C 231.098 77.066,230.574 74.412,230.311 73.933 C 230.209 73.747,230.123 73.710,230.119 73.849 M190.694 77.211 C 190.487 78.034,190.360 78.749,190.411 78.800 C 190.461 78.851,190.672 78.219,190.879 77.396 C 191.086 76.573,191.213 75.858,191.162 75.807 C 191.112 75.756,190.901 76.388,190.694 77.211 M196.180 79.016 C 196.765 79.283,197.419 79.349,198.734 79.274 L 200.501 79.172 199.970 79.614 L 199.438 80.055 199.988 79.727 C 201.067 79.084,200.774 78.920,198.607 78.955 C 197.457 78.974,196.264 78.914,195.955 78.823 C 195.646 78.731,195.747 78.818,196.180 79.016 M231.236 79.120 C 231.236 79.666,232.143 85.027,232.254 85.138 C 232.431 85.315,232.372 84.722,231.928 81.837 C 231.553 79.405,231.236 78.159,231.236 79.120 M207.865 79.836 C 207.865 80.411,208.858 81.650,209.664 82.080 C 210.385 82.465,210.404 82.466,209.900 82.092 C 208.642 81.161,208.443 80.923,208.416 80.320 C 208.389 79.687,207.865 79.227,207.865 79.836 M208.764 80.118 C 208.764 80.265,209.711 80.631,210.516 80.794 C 210.850 80.862,210.618 80.711,210.000 80.459 C 208.751 79.949,208.764 79.953,208.764 80.118 M197.007 80.525 C 197.435 80.648,197.958 80.642,198.349 80.509 C 198.894 80.324,198.791 80.294,197.647 80.308 C 196.471 80.322,196.392 80.349,197.007 80.525 M189.256 81.728 C 188.995 82.435,188.818 83.051,188.863 83.096 C 188.908 83.140,189.161 82.601,189.424 81.896 C 189.688 81.192,189.864 80.576,189.816 80.528 C 189.769 80.480,189.516 81.020,189.256 81.728 M215.677 80.636 C 216.009 80.847,215.357 81.525,214.270 82.099 C 213.899 82.294,213.678 82.458,213.779 82.463 C 214.297 82.488,216.180 81.052,216.180 80.632 C 216.180 80.532,216.003 80.451,215.787 80.453 C 215.503 80.455,215.472 80.507,215.677 80.636 M211.858 81.062 C 212.262 81.112,212.869 81.111,213.206 81.059 C 213.544 81.008,213.213 80.967,212.472 80.969 C 211.730 80.970,211.454 81.012,211.858 81.062 M188.323 83.805 C 188.195 84.044,187.983 84.524,187.851 84.873 C 187.502 85.798,187.983 85.214,188.395 84.213 C 188.760 83.324,188.716 83.071,188.323 83.805 M186.742 86.966 C 186.489 87.461,186.334 87.865,186.395 87.865 C 186.457 87.865,186.714 87.461,186.966 86.966 C 187.219 86.472,187.374 86.067,187.313 86.067 C 187.251 86.067,186.994 86.472,186.742 86.966 M232.684 87.135 C 232.902 88.356,233.531 90.588,233.631 90.489 C 233.748 90.372,232.796 86.292,232.651 86.292 C 232.587 86.292,232.602 86.671,232.684 87.135 M185.928 88.371 C 185.837 88.525,185.604 88.901,185.409 89.205 C 185.190 89.549,185.163 89.692,185.339 89.584 C 185.629 89.405,186.386 88.090,186.199 88.090 C 186.141 88.090,186.019 88.216,185.928 88.371 M184.170 91.067 C 183.736 91.716,183.215 92.475,183.012 92.753 C 182.808 93.031,182.700 93.258,182.770 93.258 C 182.885 93.258,184.630 90.878,185.035 90.169 C 185.478 89.393,184.858 90.036,184.170 91.067 M233.708 90.988 C 233.708 91.424,234.645 94.193,234.756 94.083 C 234.820 94.019,234.648 93.250,234.372 92.376 C 233.907 90.905,233.708 90.488,233.708 90.988 M180.978 95.337 C 178.973 97.747,177.878 99.132,177.648 99.551 C 177.335 100.118,177.812 99.578,179.805 97.106 C 180.839 95.823,181.920 94.483,182.207 94.128 C 182.494 93.773,182.682 93.483,182.625 93.483 C 182.567 93.483,181.826 94.317,180.978 95.337 M235.100 95.281 C 235.163 95.466,235.392 96.155,235.608 96.812 C 235.824 97.469,236.046 97.961,236.102 97.906 C 236.219 97.788,235.365 95.282,235.139 95.081 C 235.054 95.005,235.037 95.096,235.100 95.281 M236.198 98.250 C 236.159 98.587,237.158 100.999,237.237 100.760 C 237.283 100.622,237.072 99.965,236.769 99.300 C 236.465 98.634,236.208 98.162,236.198 98.250 M177.054 100.393 C 176.462 101.123,175.802 102.130,175.399 102.921 C 174.834 104.032,175.079 103.738,176.384 101.739 C 177.477 100.065,177.725 99.567,177.054 100.393 M237.375 101.348 C 237.673 102.356,239.852 107.639,239.935 107.556 C 240.049 107.441,238.083 102.397,237.602 101.573 C 237.422 101.264,237.320 101.163,237.375 101.348 M174.371 104.741 C 174.113 105.247,173.940 105.700,173.987 105.747 C 174.034 105.794,174.293 105.380,174.561 104.827 C 175.174 103.566,175.008 103.492,174.371 104.741 M173.308 107.059 C 173.091 107.536,173.156 107.697,173.854 108.416 C 174.535 109.117,174.604 109.282,174.346 109.584 C 174.180 109.778,173.792 110.457,173.483 111.092 C 172.786 112.525,172.019 112.887,170.937 112.294 L 170.225 111.904 170.755 112.356 C 171.047 112.605,171.527 112.809,171.823 112.809 C 172.477 112.809,172.488 113.002,171.905 114.282 C 171.654 114.831,171.334 116.097,171.193 117.095 C 170.969 118.683,170.885 118.896,170.524 118.801 C 169.843 118.623,169.620 123.345,170.287 123.802 C 170.391 123.874,170.604 124.511,170.759 125.218 C 171.104 126.796,171.703 127.643,172.188 127.240 C 172.827 126.710,173.357 128.428,172.928 129.643 C 172.414 131.102,172.686 131.029,173.235 129.561 C 173.650 128.453,174.055 126.938,174.491 124.867 C 174.595 124.376,174.714 124.265,175.009 124.384 C 177.132 125.240,178.346 124.419,176.604 123.304 C 174.033 121.660,171.054 114.963,172.675 114.472 C 175.383 113.653,176.224 109.609,173.991 108.146 C 173.555 107.861,173.469 107.657,173.570 107.152 C 173.725 106.374,173.635 106.342,173.308 107.059 M178.661 108.234 C 178.337 110.241,178.534 113.780,178.991 114.159 C 179.231 114.358,179.278 113.679,179.249 110.461 C 179.210 106.132,179.080 105.638,178.661 108.234 M216.122 107.759 C 215.662 108.072,215.310 108.439,215.339 108.574 C 215.369 108.709,215.253 108.871,215.081 108.934 C 214.878 109.008,214.828 108.951,214.940 108.771 C 215.144 108.440,214.534 108.740,213.820 109.322 C 213.378 109.682,213.379 109.684,213.862 109.451 C 214.609 109.090,214.719 109.164,214.248 109.709 C 213.617 110.441,215.455 108.973,216.392 107.997 C 217.309 107.043,217.251 106.992,216.122 107.759 M240.056 108.146 C 240.113 108.301,240.342 108.983,240.566 109.663 C 240.790 110.343,241.011 110.786,241.057 110.649 C 241.150 110.372,240.263 107.865,240.072 107.865 C 240.006 107.865,239.999 107.992,240.056 108.146 M212.247 110.219 C 211.753 110.523,211.438 110.776,211.547 110.780 C 211.773 110.788,213.258 109.900,213.258 109.757 C 213.258 109.606,213.194 109.636,212.247 110.219 M212.878 110.695 L 212.247 111.277 212.978 110.792 C 213.647 110.347,213.864 110.112,213.608 110.112 C 213.553 110.112,213.224 110.374,212.878 110.695 M209.551 111.584 C 208.933 111.884,208.680 112.068,208.989 111.991 C 209.640 111.831,210.787 111.274,210.787 111.118 C 210.787 110.978,210.842 110.957,209.551 111.584 M211.178 111.769 C 210.098 112.433,209.797 112.746,210.674 112.293 C 211.379 111.929,212.329 111.250,212.135 111.250 C 212.073 111.250,211.642 111.484,211.178 111.769 M241.492 112.351 C 241.568 112.780,241.770 113.488,241.941 113.925 L 242.252 114.719 242.118 113.827 C 242.044 113.337,241.842 112.629,241.669 112.254 L 241.354 111.573 241.492 112.351 M206.067 112.814 C 205.210 113.111,205.072 113.202,205.618 113.111 C 206.409 112.980,207.948 112.400,207.528 112.392 C 207.404 112.389,206.747 112.579,206.067 112.814 M208.539 113.146 C 207.983 113.444,207.596 113.692,207.678 113.698 C 207.928 113.715,209.888 112.834,209.888 112.705 C 209.888 112.490,209.570 112.594,208.539 113.146 M201.798 114.126 C 198.189 115.417,197.755 115.799,199.234 116.381 C 199.858 116.626,200.170 116.564,202.268 115.778 C 203.554 115.296,205.242 114.670,206.019 114.387 C 207.784 113.743,207.737 113.587,205.946 114.144 C 205.015 114.434,204.521 114.491,204.326 114.332 C 203.922 114.002,203.980 113.533,204.438 113.413 C 204.709 113.343,204.727 113.306,204.494 113.296 C 204.309 113.288,203.096 113.662,201.798 114.126 M242.587 116.292 C 242.643 116.663,242.790 117.624,242.915 118.427 C 243.040 119.230,243.143 119.956,243.144 120.040 C 243.145 120.124,242.565 120.257,241.854 120.335 C 241.143 120.413,240.282 120.530,239.940 120.594 L 239.318 120.711 239.378 119.425 C 239.438 118.141,239.061 117.470,238.814 118.418 C 238.748 118.671,238.785 118.820,238.897 118.751 C 239.009 118.682,239.101 119.143,239.101 119.776 L 239.101 120.926 240.730 120.787 C 243.595 120.544,243.453 120.642,243.286 119.020 C 243.207 118.246,242.995 117.165,242.815 116.616 C 242.602 115.968,242.522 115.855,242.587 116.292 M196.910 117.911 C 196.632 117.965,196.404 118.095,196.404 118.199 C 196.404 118.304,196.338 118.563,196.257 118.774 C 196.119 119.134,196.145 119.134,196.688 118.779 C 197.101 118.508,197.858 117.539,197.465 117.783 C 197.438 117.800,197.188 117.858,196.910 117.911 M178.698 120.029 C 178.135 122.038,178.150 122.141,178.968 121.935 C 179.612 121.774,179.852 120.960,179.735 119.338 C 179.623 117.793,179.256 118.037,178.698 120.029 M202.416 119.272 C 202.076 119.482,201.795 119.758,201.791 119.884 C 201.787 120.009,201.535 120.618,201.231 121.236 C 200.405 122.915,200.538 123.931,201.728 125.039 C 202.831 126.067,205.407 126.280,205.958 125.388 C 206.043 125.250,205.876 125.253,205.504 125.394 C 204.139 125.913,204.050 125.243,205.287 123.772 C 205.925 123.014,206.025 121.720,205.498 121.024 C 205.135 120.544,205.047 119.326,205.376 119.326 C 205.834 119.326,206.938 120.500,207.277 121.347 L 207.637 122.247 211.290 122.197 L 214.944 122.147 211.292 122.079 C 208.882 122.034,207.640 121.929,207.640 121.770 C 207.640 119.701,204.300 118.103,202.416 119.272 M238.080 119.877 C 237.885 120.342,237.777 120.773,237.839 120.835 C 237.901 120.897,238.110 120.567,238.304 120.102 C 238.499 119.637,238.607 119.206,238.545 119.144 C 238.483 119.083,238.274 119.413,238.080 119.877 M235.593 120.344 C 235.388 120.657,235.277 120.970,235.346 121.039 C 235.416 121.109,235.634 120.853,235.832 120.470 C 236.265 119.632,236.112 119.552,235.593 120.344 M236.183 120.730 C 236.181 121.031,236.352 121.116,236.910 121.093 C 237.528 121.067,237.554 121.046,237.079 120.958 C 236.770 120.901,236.443 120.737,236.352 120.595 C 236.246 120.429,236.185 120.478,236.183 120.730 M205.038 121.149 C 205.524 121.532,205.629 121.779,205.574 122.419 C 205.395 124.497,202.465 124.479,202.475 122.400 C 202.483 120.866,203.838 120.205,205.038 121.149 M230.000 121.381 C 228.517 121.488,225.433 121.660,223.146 121.765 C 220.636 121.880,219.750 121.968,220.909 121.989 C 223.239 122.030,231.599 121.616,233.542 121.363 C 235.530 121.104,233.724 121.114,230.000 121.381 M241.910 121.686 C 241.787 121.729,241.001 121.830,240.164 121.912 L 238.642 122.059 237.825 123.333 C 236.998 124.622,236.609 124.621,237.058 123.332 C 237.402 122.347,237.374 122.247,236.758 122.247 C 236.157 122.247,235.506 122.777,235.506 123.267 C 235.506 123.592,234.160 125.247,234.014 125.101 C 233.969 125.055,234.128 124.445,234.369 123.745 L 234.807 122.472 233.949 122.472 L 233.092 122.472 232.936 123.648 C 232.770 124.900,231.913 126.696,231.169 127.355 C 230.729 127.744,230.722 127.738,230.856 127.079 L 230.993 126.404 230.687 127.079 C 230.247 128.048,230.506 128.227,231.282 127.490 C 232.161 126.656,233.008 124.968,233.181 123.706 C 233.301 122.834,233.392 122.697,233.851 122.697 C 234.481 122.697,234.488 122.755,234.020 124.129 C 233.820 124.714,233.720 125.256,233.797 125.333 C 234.014 125.550,235.273 124.253,235.755 123.315 C 236.211 122.430,237.311 122.021,236.966 122.865 C 235.974 125.291,236.997 125.492,238.218 123.111 L 238.640 122.289 240.612 122.138 C 241.697 122.055,242.754 121.940,242.963 121.882 C 243.251 121.802,243.363 121.953,243.432 122.518 L 243.524 123.258 243.560 122.416 C 243.595 121.576,242.995 121.311,241.910 121.686 M223.933 122.931 C 221.955 123.016,217.454 123.099,213.930 123.116 C 207.545 123.146,207.523 123.148,207.211 123.652 C 207.039 123.930,206.750 124.385,206.569 124.663 C 206.388 124.941,206.301 125.169,206.375 125.169 C 206.450 125.169,206.768 124.779,207.083 124.303 L 207.655 123.438 217.479 123.273 C 222.883 123.182,228.163 123.032,229.213 122.940 L 231.124 122.773 229.326 122.775 C 228.337 122.777,225.910 122.847,223.933 122.931 M231.715 124.300 C 231.449 124.940,231.281 125.513,231.341 125.573 C 231.401 125.633,231.518 125.491,231.601 125.257 C 231.684 125.023,231.890 124.487,232.059 124.067 C 232.227 123.646,232.328 123.264,232.282 123.219 C 232.237 123.173,231.981 123.659,231.715 124.300 M229.524 124.775 C 228.750 126.088,228.700 126.200,229.094 125.730 C 229.550 125.187,229.944 124.494,229.796 124.494 C 229.738 124.494,229.615 124.621,229.524 124.775 M226.005 126.348 C 225.583 126.874,225.164 127.455,225.074 127.640 C 224.984 127.826,225.123 127.707,225.383 127.377 C 226.480 125.981,226.709 125.736,226.814 125.843 C 226.876 125.904,226.795 126.334,226.636 126.798 C 226.270 127.857,226.431 127.901,226.865 126.861 C 227.566 125.183,227.143 124.931,226.005 126.348 M229.452 126.933 C 229.209 127.519,227.865 129.034,227.865 128.722 C 227.865 128.653,228.014 128.175,228.195 127.660 C 228.377 127.145,228.446 126.773,228.348 126.834 C 228.074 127.003,227.548 128.746,227.719 128.917 C 227.802 129.000,228.181 128.772,228.562 128.411 C 229.266 127.741,230.001 126.555,229.822 126.376 C 229.768 126.322,229.601 126.572,229.452 126.933 M193.034 126.601 C 193.034 126.897,193.745 128.611,194.079 129.122 L 194.482 129.737 194.656 128.901 C 194.910 127.676,194.222 126.517,193.240 126.517 C 193.127 126.517,193.034 126.555,193.034 126.601 M243.409 128.247 C 243.371 128.969,242.788 133.684,242.581 134.944 C 242.479 135.560,242.489 135.573,242.696 135.092 C 243.017 134.345,243.638 129.353,243.534 128.359 C 243.450 127.565,243.445 127.560,243.409 128.247 M213.095 128.306 C 212.546 128.556,211.953 129.052,211.691 129.481 C 211.074 130.493,211.113 130.808,211.742 129.885 C 212.602 128.621,213.363 128.201,214.763 128.215 C 215.514 128.222,215.842 128.161,215.589 128.062 C 214.872 127.780,214.083 127.858,213.095 128.306 M225.311 128.895 C 224.303 130.075,224.098 130.060,224.605 128.845 C 224.804 128.368,224.866 128.079,224.743 128.202 C 224.334 128.611,223.817 130.084,224.034 130.218 C 224.264 130.360,225.683 129.033,226.067 128.316 C 226.420 127.656,226.279 127.764,225.311 128.895 M235.318 128.287 C 235.153 128.392,235.008 128.567,234.996 128.677 C 234.949 129.101,232.166 130.807,228.652 132.564 C 227.416 133.183,226.508 133.693,226.635 133.698 C 227.458 133.733,235.574 129.112,236.054 128.336 C 236.233 128.046,235.749 128.014,235.318 128.287 M233.299 129.022 C 232.641 129.275,232.148 129.526,232.202 129.580 C 232.312 129.691,234.831 128.786,234.831 128.636 C 234.831 128.472,234.538 128.546,233.299 129.022 M196.169 129.830 C 196.019 130.294,195.793 130.804,195.667 130.963 C 194.951 131.864,200.713 135.556,203.596 136.043 C 204.028 136.116,203.573 135.888,202.584 135.536 C 200.817 134.906,198.652 133.752,198.652 133.440 C 198.652 132.873,200.212 132.116,200.715 132.438 C 201.267 132.790,203.617 133.537,203.751 133.402 C 203.795 133.358,203.209 133.096,202.450 132.819 C 200.695 132.179,199.079 131.231,197.602 129.974 L 196.441 128.985 196.169 129.830 M217.740 130.041 C 217.871 130.311,217.978 130.845,217.978 131.227 C 217.978 131.866,218.910 132.626,219.262 132.274 C 219.316 132.220,219.160 132.113,218.917 132.035 C 218.641 131.948,218.422 131.615,218.335 131.155 C 218.259 130.748,218.041 130.221,217.850 129.983 C 217.517 129.567,217.513 129.570,217.740 130.041 M230.154 130.213 C 228.739 130.739,227.923 131.219,228.989 130.898 C 230.061 130.576,231.910 129.855,231.910 129.759 C 231.910 129.594,231.618 129.670,230.154 130.213 M211.072 131.685 C 211.072 132.242,211.116 132.469,211.170 132.191 C 211.223 131.913,211.223 131.458,211.170 131.180 C 211.116 130.902,211.072 131.129,211.072 131.685 M171.698 132.303 C 171.330 133.014,170.800 133.944,170.521 134.370 C 170.241 134.796,170.123 135.076,170.259 134.992 C 170.521 134.830,172.192 132.068,172.429 131.404 C 172.720 130.593,172.343 131.056,171.698 132.303 M225.955 131.685 C 224.966 132.037,224.253 132.332,224.370 132.342 C 224.684 132.368,228.315 131.240,228.315 131.116 C 228.315 130.913,227.735 131.053,225.955 131.685 M220.225 132.724 C 221.237 133.203,224.493 132.958,223.978 132.442 C 223.916 132.381,223.430 132.447,222.897 132.591 C 222.020 132.827,220.975 132.785,219.851 132.469 C 219.624 132.405,219.792 132.520,220.225 132.724 M211.237 132.928 C 211.236 133.055,211.393 133.383,211.586 133.658 L 211.936 134.157 210.181 134.156 C 209.216 134.155,207.468 134.010,206.295 133.834 C 203.951 133.482,203.424 133.516,205.100 133.912 C 207.555 134.491,212.364 134.765,212.351 134.326 C 212.342 133.985,211.239 132.601,211.237 132.928 M225.549 133.865 C 225.326 133.923,225.182 134.086,225.229 134.227 C 225.322 134.505,229.801 136.022,230.169 135.899 C 230.292 135.858,229.296 135.489,227.955 135.081 C 225.733 134.404,225.555 134.310,225.947 134.023 C 226.381 133.706,226.295 133.672,225.549 133.865 M168.751 136.910 C 168.091 137.806,167.307 138.868,167.008 139.270 C 166.708 139.671,166.514 140.000,166.575 140.000 C 166.681 140.000,168.521 137.599,169.632 136.011 C 170.616 134.605,169.938 135.296,168.751 136.910 M219.888 135.612 C 218.824 135.962,219.267 136.035,220.595 135.729 C 221.285 135.570,221.809 135.598,222.607 135.838 C 224.018 136.263,224.154 136.111,222.781 135.643 C 221.532 135.218,221.097 135.213,219.888 135.612 M240.126 135.869 C 240.045 136.193,240.034 136.513,240.101 136.581 C 240.169 136.649,240.225 136.515,240.225 136.285 C 240.225 135.236,240.656 136.422,240.718 137.640 C 240.841 140.062,241.938 139.286,242.341 136.492 C 242.412 136.006,242.253 136.345,241.985 137.254 C 241.424 139.153,241.036 139.249,240.953 137.510 C 240.850 135.357,240.452 134.568,240.126 135.869 M204.909 136.412 C 206.716 137.162,214.860 137.166,217.191 136.417 C 217.683 136.259,217.470 136.243,216.404 136.359 C 214.497 136.565,207.202 136.563,205.618 136.355 C 204.735 136.239,204.533 136.255,204.909 136.412 M224.045 136.283 C 224.045 136.386,226.882 137.310,227.159 137.297 C 227.473 137.282,226.463 136.816,225.451 136.509 C 224.307 136.162,224.045 136.120,224.045 136.283 M231.461 136.391 C 231.907 136.652,234.631 137.354,234.748 137.237 C 234.846 137.139,231.722 136.173,231.348 136.186 C 231.225 136.190,231.275 136.282,231.461 136.391 M228.969 137.875 C 229.886 138.186,230.745 138.402,230.879 138.356 C 231.014 138.310,230.567 138.111,229.888 137.914 C 227.783 137.305,227.218 137.281,228.969 137.875 M236.180 137.744 C 237.555 138.185,239.284 138.538,239.085 138.338 C 238.935 138.186,235.499 137.301,235.169 137.329 C 235.045 137.340,235.500 137.526,236.180 137.744 M231.966 138.782 C 232.156 138.972,235.539 139.816,235.654 139.702 C 235.707 139.649,234.955 139.391,233.984 139.128 C 232.141 138.631,231.747 138.564,231.966 138.782 M180.156 140.242 C 180.379 140.622,180.713 141.047,180.899 141.186 C 181.178 141.396,181.188 141.385,180.955 141.124 C 180.191 140.268,180.832 140.546,182.079 141.613 C 184.158 143.392,185.843 144.653,185.843 144.432 C 185.843 144.383,185.025 143.709,184.026 142.934 C 183.026 142.159,181.708 141.081,181.097 140.538 C 179.780 139.369,179.612 139.316,180.156 140.242 M236.180 139.918 C 236.365 139.993,236.857 140.211,237.273 140.402 L 238.030 140.750 237.921 142.566 C 237.861 143.565,237.734 144.584,237.637 144.831 C 237.494 145.200,237.516 145.231,237.763 145.002 C 237.955 144.824,238.099 143.990,238.160 142.699 C 238.246 140.902,238.305 140.674,238.679 140.674 C 239.041 140.674,239.101 140.851,239.101 141.910 C 239.101 143.247,239.326 143.480,239.739 142.574 C 240.101 141.779,240.052 141.567,239.663 142.247 C 239.350 142.794,239.342 142.781,239.334 141.749 C 239.326 140.657,238.796 140.035,238.100 140.302 C 237.939 140.364,237.719 140.332,237.612 140.231 C 237.504 140.130,237.062 139.987,236.629 139.914 C 236.197 139.841,235.994 139.842,236.180 139.918 M165.895 140.843 C 165.313 141.683,165.124 142.022,165.238 142.022 C 165.290 142.022,165.601 141.618,165.928 141.124 C 166.593 140.119,166.564 139.876,165.895 140.843 M240.150 141.049 C 239.833 141.365,240.018 141.613,240.359 141.330 C 240.687 141.058,240.687 141.108,240.356 141.899 C 240.157 142.375,240.045 142.816,240.106 142.878 C 240.227 142.998,240.899 141.517,240.899 141.131 C 240.899 140.872,240.383 140.816,240.150 141.049 M182.001 142.631 C 183.326 144.270,184.778 145.684,186.742 147.249 C 187.669 147.988,188.458 148.620,188.496 148.654 C 189.005 149.105,183.489 151.146,180.320 151.680 C 178.970 151.907,178.169 152.102,178.539 152.112 C 180.481 152.168,184.548 151.090,186.980 149.874 C 189.059 148.836,189.057 148.792,186.868 147.083 C 185.814 146.260,184.074 144.658,183.003 143.524 C 181.931 142.389,181.480 141.987,182.001 142.631 M236.999 142.174 C 236.496 143.890,236.225 147.191,236.588 147.191 C 236.769 147.191,237.536 145.751,237.519 145.442 C 237.514 145.353,237.342 145.584,237.136 145.955 C 236.594 146.934,236.531 146.273,236.941 143.896 C 237.255 142.076,237.285 141.201,236.999 142.174 M164.467 143.269 C 164.218 143.831,164.047 144.379,164.086 144.486 C 164.125 144.594,164.372 144.134,164.634 143.465 C 165.212 141.987,165.095 141.849,164.467 143.269 M234.634 143.096 C 234.344 143.637,233.978 145.818,233.833 147.865 C 233.736 149.225,233.798 149.010,234.153 146.753 C 234.396 145.215,234.693 143.673,234.813 143.326 C 235.060 142.619,234.958 142.489,234.634 143.096 M235.135 145.315 C 235.128 146.492,235.194 147.120,235.298 146.854 C 235.520 146.288,235.527 144.293,235.311 143.742 C 235.221 143.513,235.142 144.221,235.135 145.315 M238.973 144.753 C 237.074 148.507,234.754 151.216,229.120 156.260 C 220.316 164.142,218.740 165.328,215.355 166.621 C 214.342 167.008,214.087 167.164,214.607 167.082 C 217.026 166.697,220.681 164.194,226.404 159.000 C 227.640 157.879,229.107 156.571,229.663 156.095 C 234.145 152.254,240.466 144.436,239.704 143.674 C 239.636 143.606,239.307 144.092,238.973 144.753 M186.276 144.808 C 186.580 145.179,187.865 145.953,187.865 145.766 C 187.865 145.717,187.435 145.394,186.910 145.048 C 186.370 144.692,186.094 144.587,186.276 144.808 M163.881 145.843 C 163.881 146.399,163.925 146.626,163.979 146.348 C 164.032 146.070,164.032 145.615,163.979 145.337 C 163.925 145.059,163.881 145.287,163.881 145.843 M232.081 146.002 C 231.669 147.051,231.151 149.204,231.280 149.333 C 231.383 149.436,232.580 145.323,232.478 145.215 C 232.444 145.179,232.265 145.533,232.081 146.002 M188.188 146.045 C 188.275 146.185,188.870 146.562,189.510 146.882 C 190.901 147.577,190.668 147.293,189.127 146.414 C 188.524 146.070,188.101 145.904,188.188 146.045 M232.654 147.079 C 232.655 147.820,232.697 148.097,232.747 147.693 C 232.797 147.289,232.796 146.682,232.745 146.344 C 232.694 146.007,232.653 146.337,232.654 147.079 M164.062 147.191 C 164.033 147.860,164.510 149.171,164.891 149.470 C 165.229 149.735,165.247 149.731,165.022 149.438 C 164.879 149.253,164.608 148.596,164.419 147.978 C 164.231 147.360,164.070 147.006,164.062 147.191 M190.787 147.529 C 190.787 147.653,192.049 148.315,192.286 148.315 C 192.516 148.315,191.680 147.754,191.180 147.572 C 190.963 147.494,190.787 147.475,190.787 147.529 M193.483 148.840 C 193.792 149.015,194.298 149.224,194.607 149.306 L 195.169 149.455 194.607 149.137 C 194.298 148.963,193.792 148.753,193.483 148.671 L 192.921 148.523 193.483 148.840 M234.212 149.686 C 233.895 150.434,233.839 150.733,234.045 150.561 C 234.372 150.290,234.945 148.802,234.784 148.642 C 234.733 148.591,234.476 149.061,234.212 149.686 M232.146 149.942 C 231.462 152.232,230.654 153.230,230.871 151.517 C 230.954 150.856,230.934 150.621,230.817 150.899 C 230.514 151.620,230.314 153.258,230.529 153.258 C 231.047 153.258,232.881 149.435,232.531 149.085 C 232.476 149.031,232.303 149.416,232.146 149.942 M196.234 149.887 C 196.670 150.160,198.638 150.790,198.989 150.768 C 199.217 150.753,197.427 150.081,196.404 149.797 C 195.940 149.668,195.910 149.684,196.234 149.887 M166.413 151.025 C 166.548 151.244,168.518 152.007,168.635 151.886 C 168.682 151.838,168.177 151.584,167.513 151.324 C 166.848 151.063,166.353 150.929,166.413 151.025 M200.225 151.081 C 200.225 151.262,202.484 151.973,202.622 151.835 C 202.688 151.769,202.321 151.602,201.806 151.463 C 201.292 151.324,200.725 151.155,200.548 151.087 C 200.370 151.019,200.225 151.016,200.225 151.081 M172.201 152.302 C 173.165 152.344,174.682 152.344,175.572 152.301 C 176.462 152.259,175.674 152.224,173.820 152.225 C 171.966 152.225,171.238 152.260,172.201 152.302 M204.103 152.303 C 204.578 152.568,203.861 152.809,202.595 152.809 C 201.628 152.809,201.135 152.903,201.059 153.104 C 200.922 153.460,204.411 152.982,204.803 152.591 C 204.961 152.432,204.955 152.360,204.782 152.360 C 204.644 152.360,204.396 152.326,204.232 152.284 C 204.067 152.242,204.009 152.251,204.103 152.303 M227.673 152.753 C 227.428 153.326,227.433 153.339,227.749 152.935 C 228.176 152.388,228.245 153.046,227.866 154.043 C 227.727 154.407,227.724 154.582,227.858 154.499 C 228.073 154.366,228.536 152.949,228.538 152.416 C 228.540 151.895,227.940 152.129,227.673 152.753 M226.864 154.360 C 226.339 155.523,226.479 155.912,227.198 155.288 C 227.729 154.827,227.731 154.817,227.239 155.056 L 226.725 155.305 227.073 154.472 C 227.543 153.347,227.364 153.251,226.864 154.360 M201.656 155.777 C 201.857 156.618,202.215 157.528,202.343 157.528 C 202.488 157.528,201.870 155.500,201.669 155.315 C 201.581 155.234,201.575 155.442,201.656 155.777 M202.700 158.513 C 202.656 160.867,208.559 167.240,210.728 167.180 C 210.946 167.174,210.502 166.915,209.743 166.604 C 207.384 165.639,205.641 163.789,203.729 160.225 C 203.165 159.174,202.702 158.404,202.700 158.513 M211.858 167.354 C 212.262 167.404,212.869 167.403,213.206 167.352 C 213.544 167.300,213.213 167.259,212.472 167.261 C 211.730 167.262,211.454 167.304,211.858 167.354 " stroke="none" fill="#6f6f6c" fill-rule="evenodd"></path></g></svg>