<?xml version="1.0" standalone="no"?>
<!DOCTYPE svg PUBLIC "-//W3C//DTD SVG 20010904//EN"
 "http://www.w3.org/TR/2001/REC-SVG-20010904/DTD/svg10.dtd">
<svg version="1.0" xmlns="http://www.w3.org/2000/svg"
 width="323.000000pt" height="391.000000pt" viewBox="0 0 323.000000 391.000000"
 preserveAspectRatio="xMidYMid meet">

<g transform="translate(0.000000,391.000000) scale(0.100000,-0.100000)"
fill="#000000" stroke="none">
<path d="M0 1955 l0 -1955 1615 0 1615 0 0 1955 0 1955 -1615 0 -1615 0 0
-1955z m2307 1642 c218 -59 405 -211 506 -412 135 -270 85 -619 -120 -846 -40
-45 -41 -40 19 -111 158 -187 217 -467 147 -702 -61 -203 -207 -379 -392 -470
-159 -78 -167 -79 -561 -83 l-349 -4 -506 -356 c-278 -196 -521 -368 -539
-381 l-32 -25 2 288 3 288 475 343 475 343 395 3 395 3 49 25 c60 30 118 101
136 164 36 128 -42 304 -164 369 -40 21 -52 22 -426 25 l-385 3 -475 -329
c-261 -181 -478 -328 -482 -325 -10 5 -10 2197 -1 2207 4 4 403 5 888 3 785
-3 887 -5 942 -20z"/>
<path d="M1010 2721 c0 -220 3 -402 8 -404 4 -2 99 56 212 129 l205 134 381 0
c418 0 436 2 507 61 20 17 49 52 65 77 24 41 27 57 27 133 0 78 -3 90 -30 134
-35 57 -100 110 -153 125 -23 6 -252 10 -629 10 l-593 0 0 -399z"/>
</g>
</svg>
